<svg version="1.1" xmlns="http://www.w3.org/2000/svg" xmlns:xlink="http://www.w3.org/1999/xlink" width="32" height="32" viewBox="0,0,32,32"><g transform="translate(-224,-164)"><g data-paper-data="{&quot;isPaintingLayer&quot;:true}" fill-rule="nonzero" stroke-linejoin="miter" stroke-miterlimit="10" stroke-dasharray="" stroke-dashoffset="0" style="mix-blend-mode: normal"><path d="M225.00001,180c0,-8.28427 6.71573,-15 15,-15c8.28427,0 15,6.71573 15,15c0,8.28427 -6.71573,15 -15,15c-8.28427,0 -15,-6.71573 -15,-15z" fill="#ffffff" stroke="#ffffff" stroke-width="2" stroke-linecap="butt"/><path d="M231.74461,182.37747v-4.75495h16.51079v4.75495z" fill="#ffffff" stroke="#000000" stroke-width="2" stroke-linecap="butt"/><path d="M243.42392,178.16547v3.66906" fill="none" stroke="#000000" stroke-width="2" stroke-linecap="round"/><path d="M243.67633,180.50764c0,1.38071 -1.45279,2.5 -3.2449,2.5c-0.76138,0 -1.46151,-0.20203 -2.01502,-0.54031c-1.69801,0.3678 -3.54254,0.38448 -4.51108,-0.11299c-1.68808,-0.08829 -3.02185,-1.17123 -3.02185,-2.49419c0,-1.38071 1.45279,-2.5 3.2449,-2.5c0.16351,0 0.32421,0.00932 0.48123,0.0273c2.20464,-0.51407 4.81681,-0.34281 6.31385,0.64873c1.55861,0.18266 2.75286,1.2196 2.75286,2.47145z" fill="#000000" stroke="none" stroke-width="0.5" stroke-linecap="butt"/></g></g></svg>