<svg version="1.1" xmlns="http://www.w3.org/2000/svg" xmlns:xlink="http://www.w3.org/1999/xlink"  width="200"  height="200" viewBox="0,0,32,32"><g transform="translate(-224,-164)"><g data-paper-data="{&quot;isPaintingLayer&quot;:true}" fill-rule="nonzero" stroke-linejoin="miter" stroke-miterlimit="10" stroke-dasharray="" stroke-dashoffset="0" style="mix-blend-mode: normal"><path d="M225.00001,180c0,-8.28427 6.71573,-15 15,-15c8.28427,0 15,6.71573 15,15c0,8.28427 -6.71573,15 -15,15c-8.28427,0 -15,-6.71573 -15,-15z" fill="#ffffff" stroke="#ffffff" stroke-width="2" stroke-linecap="butt"/><path d="M231.74461,182.37747v-4.75495h16.51079v4.75495z" fill="#ffffff" stroke="#000000" stroke-width="2" stroke-linecap="butt"/><path d="M240.00001,178.16547v3.66906" fill="none" stroke="#000000" stroke-width="2" stroke-linecap="round"/><path d="M240.73961,180.50764c0,1.38071 -1.11929,2.5 -2.5,2.5c-0.5866,0 -1.12601,-0.20203 -1.55245,-0.54031c-1.30822,0.3678 -2.72931,0.38448 -3.47551,-0.11299c-1.30056,-0.08829 -2.32816,-1.17123 -2.32816,-2.49419c0,-1.38071 1.11929,-2.5 2.5,-2.5c0.12598,0 0.24978,0.00932 0.37076,0.0273c1.69854,-0.51407 3.71106,-0.34281 4.86444,0.64873c1.20082,0.18266 2.12092,1.2196 2.12092,2.47145z" fill="#000000" stroke="none" stroke-width="0.5" stroke-linecap="butt"/><path d="M231.68065,182.2486v-4.58904h16.50685v4.58904z" fill="#ffffff" stroke="#000000" stroke-width="2" stroke-linecap="butt"/></g></g></svg>
