<svg version="1.1" xmlns="http://www.w3.org/2000/svg" xmlns:xlink="http://www.w3.org/1999/xlink" width="960.3049" height="612.83413" viewBox="0,0,960.3049,612.83413"><g transform="translate(290.65025,113.46013)"><g data-paper-data="{&quot;isPaintingLayer&quot;:true}" fill="#000000" fill-rule="nonzero" stroke="none" stroke-width="0.5" stroke-linecap="butt" stroke-linejoin="miter" stroke-miterlimit="10" stroke-dasharray="" stroke-dashoffset="0" style="mix-blend-mode: normal"><path d="M-28.85043,-104.97748c91.78971,-6.11931 181.22187,-11.98354 274.26716,-5.95063c29.79009,1.93154 58.7785,2.60498 88.53517,4.501c30.27508,1.92905 60.48087,5.53447 90.81444,5.95414c56.2737,0.77856 112.55818,-0.03431 168.83726,0c6.16625,0.00376 14.47535,1.28134 19.05788,1.5015c9.28223,0.44595 14.80847,0.84256 23.55172,1.5015c10.49616,0.79105 23.08421,-0.74235 29.5352,10.54688c2.47601,4.33302 3.90625,9.46256 3.90625,14.45313c0,4.99056 -1.43024,10.1201 -3.90625,14.45313c-6.63746,11.61555 -19.86942,9.79887 -30.63027,10.54688c-3.35294,0.23307 -6.57297,1.49149 -9.983,1.5015c-1.65609,0.00486 -3.31218,0.00922 -4.96827,0.01312c2.58531,12.24904 2.61468,26.30276 2.7393,36.34886c0.07338,5.91546 3.5353,11.29996 5.66275,16.82011c3.96659,10.2922 9.54191,20.01803 13.57019,30.33648c7.10535,18.20037 7.92104,37.83359 9.29559,57.05762c0.28025,3.91955 1.48322,8.21461 1.5015,12.28721c0.05617,12.51239 0.05617,25.02515 0,37.53754c-0.01837,4.09196 -1.3024,8.30699 -1.5015,12.28721c-0.27048,5.40701 0.06073,10.82789 0,16.24132c-0.04188,3.733 -1.19433,7.39949 -1.5015,11.07807c-0.30405,3.64119 0.22606,7.40006 -0.34015,11.04992c-0.82768,5.33535 -2.03969,10.61403 -2.66285,15.97711c-0.4595,3.95453 0.20552,7.89198 -0.48548,11.84285c-1.89439,10.83127 -5.69288,20.63721 -7.02202,31.70069c-1.12183,9.33782 -0.26952,19.09366 -1.98698,28.35937c-1.99071,10.73988 -4.04124,21.46988 -5.86067,32.2401c-0.32899,1.94746 -1.1262,3.94678 -1.16135,5.87302c-0.30772,16.86539 -0.30772,33.73919 0,50.60458c0.07748,4.2467 1.48901,15.6462 2.40085,19.51176c3.76867,15.97657 8.5568,31.02588 8.10966,47.52829c-0.12148,4.48328 -1.03851,11.13259 -3.90625,14.45313c-2.04611,2.36917 -4.27145,4.59452 -6.64062,6.64063c-5.38693,4.65235 -19.87872,4.7742 -27.36838,3.51563c-1.3347,-0.22429 -2.93064,-1.10872 -4.28732,-1.11088c-54.3258,-0.08621 -108.65174,0.02581 -162.97761,0c-8.17875,-0.00389 -17.84359,-1.42713 -24.80451,-1.5015c-37.57743,-0.40147 -75.16113,-0.38531 -112.73872,0c-8.21928,0.08428 -21.52944,1.49207 -32.12643,1.5015c-22.02201,0.01961 -44.04405,0.01792 -66.06607,0c-11.59926,-0.00944 -25.53345,-1.44881 -35.07776,-1.5015c-9.98355,-0.05512 -19.96713,-0.09559 -29.95075,-0.12433c-10.45656,0.7502 -20.9232,1.40545 -31.34122,2.56359c-16.66535,1.85263 -29.20012,4.62194 -46.27291,4.6406c-25.02501,0.02735 -50.05008,0.04068 -75.07508,0c-10.96123,-0.01782 -22.80231,-2.12377 -33.70133,-3.09716c-1.45317,-0.12978 -3.75973,-1.69243 -4.36174,-0.36348c-1.37436,3.03395 0.09358,6.66276 0,9.99217c-0.2567,9.13351 -4.0033,15.44248 -10.54687,21.09375c-3.33196,2.8776 -9.96203,3.74537 -14.45312,3.90625c-22.49523,0.80584 -36.70427,-11.03004 -53.54215,-25.31399c-3.88912,-3.29922 -7.50276,-6.99255 -10.74051,-10.94197c-5.22814,-6.3773 -12.75816,-18.26424 -10.59735,-26.77243c2.01279,-7.92536 4.51937,-11.36058 10.83095,-16.77051c0.61987,-0.53132 1.4867,-0.82578 2.35415,-1.10234c-12.12578,-11.37764 -5.81988,-28.82036 2.12367,-43.74876c-0.00288,-9.38908 -0.0005,-18.77817 0.00475,-28.16725c-0.83253,-0.87049 -1.52694,-1.76151 -1.72182,-2.48256c-0.27108,-1.00302 -0.42272,-2.03064 -0.54718,-3.06423c-9.11795,2.83823 -19.77098,0.34221 -27.61546,-8.42515c-10.33393,-11.54968 -1.31363,-29.95583 2.49901,-42.35068c1.17243,-3.81157 2.10184,-7.70149 3.43772,-11.45889c4.08572,-11.49182 9.10549,-21.39021 12.94351,-33.33144c1.51571,-4.71583 1.87204,-10.31671 3.61892,-15.15597c4.52802,-12.54364 8.99751,-25.11332 13.0849,-37.80738c5.41369,-16.8131 10.35689,-34.65028 10.84885,-52.39676c0.32348,-11.66867 0.41228,-23.40563 -0.19882,-35.09505c-1.04058,-0.50282 -1.94656,-1.04109 -2.65125,-1.59808c-5.94152,-4.69613 -9.92322,-10.05322 -10.69373,-17.60847c-0.3284,-3.22015 1.2995,-6.46017 1.02397,-9.45849c-0.11081,-1.20586 -2.29223,-0.78441 -3.41889,-1.22828c-1.2175,-0.47966 -2.45616,-0.93932 -3.58227,-1.60584c-6.01615,-3.56089 -10.73065,-8.14284 -13.09381,-15.07023c-0.86561,-2.53746 -0.2748,-5.35619 -0.31579,-8.03691c-0.02513,-1.64361 1.43149,-2.65049 0.38532,-3.91841c-1.16637,-1.4136 -0.94463,-3.54225 -1.35653,-5.32803c-3.04428,-13.1984 5.87757,-21.11876 12.88452,-31.16358c-0.65281,-3.08926 -1.33511,-6.16559 -2.15928,-9.18363c-5.23391,-19.16627 -8.10619,-30.14999 -8.35497,-49.50168c-0.01758,-1.3675 0.27707,-3.69074 0.78666,-6.28865c-7.87777,0.04201 -15.75542,0.07047 -23.63277,0.06305c-6.27722,-0.00592 -13.43512,-1.4079 -19.05788,-1.5015c-22.67326,-0.37743 -45.35314,0.12314 -68.0292,0c-7.4908,-0.04068 -17.17456,-3.68829 -21.09375,-10.54687c-10.2492,-17.9361 -1.2567,-34.45145 17.1875,-39.0625c27.76938,-6.94235 62.24681,-1.37132 92.0332,1.11088l100.66042,0c3.47022,-2.95209 7.82418,-4.89512 14.88987,-5.88801c3.04505,-0.4279 5.86284,1.86496 8.74481,2.93719c2.63807,0.98148 5.90394,1.15376 7.99089,2.95082zM434.88631,-15.99995c-0.57023,-0.0335 -1.14683,-0.06562 -1.72917,-0.09643c-0.03628,0.03217 -0.07263,0.06431 -0.10904,0.09643zM10.42243,-24.99996l0.26779,-0.06695c-0.51765,-0.04289 -1.03525,-0.08467 -1.55281,-0.12513c-0.02798,0.06409 -0.05597,0.12812 -0.08398,0.19208z"/><path d="M238.11475,136.24178c2.38933,-0.84959 4.72158,-1.18188 7.03012,-1.20568c0.44867,-0.02397 0.90049,-0.0361 1.35513,-0.0361c2.22946,0 4.39075,0.29183 6.44777,0.83938c2.57786,0.45686 5.17349,1.00429 7.83403,1.34745c10.90588,1.40662 25.19866,0.84024 30.93935,13.16171c2.10762,4.52368 3.10693,9.75427 2.69249,14.7276c-2.21346,26.5615 -33.05491,25.51283 -51.9569,19.59859c-4.62622,-0.75229 -8.82631,-2.77423 -12.23103,-5.69658c-3.8138,-2.63838 -6.85846,-6.08553 -7.22431,-10.42501c-0.97148,-2.66836 -1.5014,-5.54886 -1.5014,-8.55313c0,-6.52238 2.49775,-12.46139 6.58891,-16.91268c2.00167,-2.83146 4.93137,-5.03408 10.02583,-6.84554z"/></g></g></svg>